<?xml version="1.0" encoding="iso-8859-1"?>
<!-- Generator: Adobe Illustrator 19.0.0, SVG Export Plug-In . SVG Version: 6.00 Build 0)  -->
<svg version="1.1" id="Capa_1" xmlns="http://www.w3.org/2000/svg" xmlns:xlink="http://www.w3.org/1999/xlink" x="0px" y="0px"
	 viewBox="0 0 512.001 512.001" style="enable-background:new 0 0 512.001 512.001;" xml:space="preserve">
<path style="fill:#69CAEE;" d="M501.98,249.402c-0.447,45.944-31.475,87.018-77.267,97.409
	c-53.756,12.197-107.49-22.507-120.018-77.516c-12.529-55.008,20.892-109.49,74.648-121.689
	c53.328-12.101,106.629,21.965,119.706,76.218c-0.095-0.434-0.181-0.866-0.279-1.3c-15.387-67.554-81.373-110.172-147.389-95.191
	c-66.013,14.979-107.056,81.886-91.67,149.438c15.387,67.553,81.374,110.171,147.391,95.191
	C464.308,358.981,502.753,307.003,501.98,249.402z"/>
<path style="fill:#EEEEEE;" d="M304.695,269.296c-12.529-55.008,20.892-109.49,74.648-121.689
	c53.753-12.197,107.487,22.508,120.019,77.516c12.529,55.009-20.892,109.49-74.649,121.689
	C370.958,359.009,317.223,324.305,304.695,269.296z"/>
<path d="M380.227,288.377c-18.145-14.221-26.064-30.585-23.537-48.64c1.956-13.974,9.542-24.171,9.762-24.463
	c3.36-4.361,2.564-10.622-1.788-14.001c-4.363-3.39-10.646-2.599-14.031,1.764c-0.435,0.559-10.665,13.907-13.605,32.954
	c-2.762,17.881,0.352,44.216,30.862,68.128c1.83,1.434,4.004,2.129,6.162,2.129c2.968,0,5.905-1.315,7.878-3.831
	C385.336,298.069,384.574,291.784,380.227,288.377z"/>
<path d="M162.792,192.224c0.63,0,1.26-0.059,1.88-0.18c30.19-5.75,52.81-6.04,57.04-6.04h0.6c2.73,0.06,5.25-0.98,7.17-2.87
	c1.891-1.85,2.95-4.32,3-6.96c0.09-5.51-4.319-10.07-9.83-10.17c-0.05,0-0.33,0-0.84,0c-4.569,0-28.98,0.32-60.88,6.39
	c-5.41,1.03-8.98,6.28-7.95,11.7C153.882,188.805,158.002,192.224,162.792,192.224z"/>
<path d="M124.002,201.934c1.01,0,2.02-0.16,3-0.47c5.26-1.65,8.189-7.28,6.54-12.54c-1.32-4.19-5.15-7-9.54-7
	c-1.021,0-2.03,0.16-3.01,0.46c0,0.01-0.011,0.01-0.011,0.01c-2.54,0.811-4.62,2.55-5.85,4.91c-1.23,2.37-1.47,5.08-0.67,7.63
	C115.782,199.115,119.611,201.934,124.002,201.934z"/>
<path d="M69.601,225.474c1.75,0,3.47-0.47,4.99-1.34c5.24-3.02,10.78-5.93,16.46-8.63c4.98-2.37,7.1-8.351,4.74-13.33
	c-1.65-3.46-5.2-5.7-9.04-5.7c-1.49,0-2.931,0.33-4.29,0.97c-6.141,2.921-12.141,6.07-17.851,9.36c-2.319,1.33-3.979,3.49-4.67,6.07
	c-0.689,2.58-0.34,5.27,0.99,7.59C62.712,223.555,66.032,225.474,69.601,225.474z"/>
<path d="M246.904,342.815c-2.724-0.538-67.358-12.714-126.149,33.33c-4.348,3.405-5.112,9.691-1.707,14.039
	c1.973,2.519,4.911,3.835,7.88,3.834c2.156,0,4.329-0.694,6.159-2.127c51.272-40.156,109.197-29.599,109.941-29.455
	c5.42,1.064,10.662-2.455,11.736-7.864C255.84,349.155,252.321,343.891,246.904,342.815z"/>
<path d="M134.238,256.996c34.952-11.604,61.352-11.043,61.748-11.029c0.102,0.004,0.205,0.005,0.308,0.005
	c5.375,0,9.817-4.27,9.989-9.682c0.176-5.521-4.157-10.138-9.677-10.314c-1.2-0.044-29.59-0.782-67.804,11.753
	C93.678,249.25,43.159,274.708,1.954,330.562c-3.279,4.444-2.334,10.705,2.11,13.983c1.787,1.318,3.866,1.954,5.929,1.954
	c3.067-0.001,6.095-1.407,8.055-4.064C48.43,301.254,87.522,272.508,134.238,256.996z"/>
<path d="M205.882,284.345c-6.69,0-20.66,0.62-38.95,4.77c-5.38,1.221-8.76,6.591-7.54,11.961c0.51,2.229,1.771,4.229,3.561,5.64
	c1.76,1.39,3.949,2.149,6.18,2.149c0.75,0,1.5-0.079,2.23-0.25c16.98-3.85,29.801-4.27,34.52-4.27c0.86,0,2.25,0.04,2.33,0.04
	c0.02,0,0.04,0.01,0.05,0.01c0.021,0,0.021,0,0.03,0c5.51,0.28,10.22-3.93,10.54-9.399c0.319-5.5-3.891-10.24-9.4-10.57
	C209.422,284.425,208.202,284.345,205.882,284.345z"/>
<path d="M131.242,301.495c-1.41,0-2.771,0.29-4.07,0.859c-5.03,2.25-7.311,8.17-5.07,13.21c1.61,3.601,5.2,5.931,9.15,5.931
	c1.399,0,2.77-0.29,4.06-0.86c5.03-2.25,7.311-8.17,5.07-13.21C138.771,303.825,135.181,301.495,131.242,301.495z"/>
<path d="M96.481,321.165c-2.06,0-4.04,0.63-5.729,1.81c-11.25,7.87-21.97,16.95-31.86,26.98c-1.87,1.899-2.89,4.42-2.87,7.09
	c0.021,2.67,1.07,5.18,2.981,7.05c1.88,1.86,4.37,2.88,7.02,2.88c2.69,0,5.221-1.06,7.12-2.979c9.04-9.17,18.82-17.46,29.08-24.631
	c4.521-3.159,5.62-9.409,2.46-13.93C102.811,322.765,99.742,321.165,96.481,321.165z"/>
<path d="M46.231,379.495c-1.699-1.2-3.69-1.83-5.76-1.83c-3.25,0-6.31,1.58-8.18,4.229c-1.54,2.181-2.141,4.84-1.681,7.47
	c0.45,2.631,1.9,4.931,4.091,6.471c1.689,1.19,3.68,1.83,5.75,1.83c3.25,0,6.31-1.59,8.18-4.24c1.54-2.18,2.14-4.83,1.689-7.47
	C49.861,383.325,48.412,381.024,46.231,379.495z"/>
<path d="M460.781,143.724c-23.61-18.951-52.995-29.389-82.742-29.389c-9.664,0-19.377,1.093-28.869,3.247
	c-34.576,7.846-63.937,28.986-82.671,59.527c-18.689,30.466-24.562,66.649-16.536,101.884c6.877,30.192,23.832,57.39,47.741,76.58
	c23.611,18.951,52.998,29.389,82.745,29.389c9.663,0,19.375-1.092,28.867-3.246c34.576-7.847,63.936-28.987,82.67-59.528
	c13.588-22.152,20.015-47.323,20.015-72.959C512.001,201.336,484.69,162.914,460.781,143.724z M404.89,362.212
	c-8.042,1.824-16.266,2.75-24.441,2.75c-52.377,0-99.054-38.023-110.986-90.41c-6.857-30.108-1.855-61,14.084-86.984
	c15.894-25.91,40.771-43.838,70.049-50.481c8.043-1.825,16.267-2.751,24.443-2.751c5.193,0,10.326,0.389,15.379,1.113
	c-5.467,0.391-10.92,1.188-16.287,2.406c-28.648,6.501-52.973,24.015-68.492,49.314c-15.475,25.225-20.337,55.181-13.693,84.348
	c5.691,24.992,19.729,47.507,39.524,63.396c19.556,15.696,43.897,24.341,68.541,24.341c5.279,0,10.575-0.402,15.826-1.182
	C414.318,359.74,409.664,361.128,404.89,362.212z M478.371,296.791c-12.679,20.669-32.521,34.97-55.87,40.268
	c-6.413,1.455-12.971,2.193-19.49,2.193c-41.793,0-79.04-30.355-88.565-72.178c-5.476-24.041-1.483-48.705,11.241-69.448
	c12.679-20.669,32.521-34.97,55.87-40.269c6.413-1.455,12.97-2.193,19.488-2.193c41.491,0,78.488,29.926,88.343,71.281
	c1.582,7.435,2.442,14.909,2.597,22.34C491.929,265.674,487.32,282.203,478.371,296.791z"/>
<g>
</g>
<g>
</g>
<g>
</g>
<g>
</g>
<g>
</g>
<g>
</g>
<g>
</g>
<g>
</g>
<g>
</g>
<g>
</g>
<g>
</g>
<g>
</g>
<g>
</g>
<g>
</g>
<g>
</g>
</svg>
